<?xml version="1.0" encoding="UTF-8"?>
<svg width="200px" height="200px" viewBox="0 0 200 200" version="1.1" xmlns="http://www.w3.org/2000/svg">
    <g stroke="none" stroke-width="1" fill="none" fill-rule="evenodd">
        <circle fill="#336699" cx="100" cy="100" r="100"></circle>
        <path d="M100,30 C130,30 155,55 155,85 C155,115 130,140 100,140 C70,140 45,115 45,85 C45,55 70,30 100,30 Z" fill="#8BC34A"></path>
        <path d="M100,50 C120,50 135,65 135,85 C135,105 120,120 100,120 C80,120 65,105 65,85 C65,65 80,50 100,50 Z" fill="#4CAF50"></path>
        <path d="M100,70 C110,70 115,75 115,85 C115,95 110,100 100,100 C90,100 85,95 85,85 C85,75 90,70 100,70 Z" fill="#2E7D32"></path>
        <path d="M100,140 L100,170 L120,170 L120,180 L80,180 L80,170 L100,170 L100,140 Z" fill="#795548"></path>
        <path d="M40,120 C40,120 60,140 100,140 C140,140 160,120 160,120 C160,120 140,160 100,160 C60,160 40,120 40,120 Z" fill="#795548"></path>
    </g>
</svg>