<?xml version="1.0" encoding="UTF-8" standalone="no"?>
<svg width="200" height="200" viewBox="0 0 200 200" fill="none" xmlns="http://www.w3.org/2000/svg">
  <circle cx="100" cy="100" r="90" fill="#409EFF" fill-opacity="0.2" stroke="#409EFF" stroke-width="4"/>
  <path d="M100 30C61.34 30 30 61.34 30 100C30 138.66 61.34 170 100 170C138.66 170 170 138.66 170 100C170 61.34 138.66 30 100 30ZM100 50C127.614 50 150 72.386 150 100C150 127.614 127.614 150 100 150C72.386 150 50 127.614 50 100C50 72.386 72.386 50 100 50Z" fill="#409EFF"/>
  <path d="M100 70C83.431 70 70 83.431 70 100C70 116.569 83.431 130 100 130C116.569 130 130 116.569 130 100C130 83.431 116.569 70 100 70ZM100 90C105.523 90 110 94.477 110 100C110 105.523 105.523 110 100 110C94.477 110 90 105.523 90 100C90 94.477 94.477 90 100 90Z" fill="#409EFF"/>
  <path d="M40 100H60M140 100H160M100 40V60M100 140V160" stroke="#409EFF" stroke-width="4"/>
</svg>